<svg width="22" height="22" viewBox="0 0 22 22" fill="none" xmlns="http://www.w3.org/2000/svg">
<path opacity="0.4" d="M19.4854 8.65325H1.79248V5.88492C1.79248 3.64825 3.56715 1.83325 5.75411 1.83325H7.84248C9.30344 1.83325 9.76055 2.31909 10.3431 3.11659L11.598 4.82159C11.8758 5.19742 11.9117 5.25242 12.4315 5.25242H14.9322C17.0564 5.24325 18.8669 6.67325 19.4854 8.65325Z" fill="#007C85" fill-opacity="0.6"/>
<path d="M19.7094 9.93678C19.6915 9.48761 19.6198 9.06594 19.4854 8.65344H1.79248V15.2626C1.79248 17.9668 3.94359 20.1668 6.58767 20.1668H14.9232C17.5673 20.1668 19.7184 17.9668 19.7184 15.2626V10.1476C19.7184 10.0834 19.7184 10.0009 19.7094 9.93678ZM12.9962 14.8959H11.4814V16.5001C11.4814 16.8759 11.1767 17.1876 10.8092 17.1876C10.4417 17.1876 10.137 16.8759 10.137 16.5001V14.8959H8.5147C8.14722 14.8959 7.84248 14.5843 7.84248 14.2084C7.84248 13.8326 8.14722 13.5209 8.5147 13.5209H10.137V11.9168C10.137 11.5409 10.4417 11.2293 10.8092 11.2293C11.1767 11.2293 11.4814 11.5409 11.4814 11.9168V13.5209H12.9962C13.3637 13.5209 13.6684 13.8326 13.6684 14.2084C13.6684 14.5843 13.3637 14.8959 12.9962 14.8959Z" fill="#007C85" fill-opacity="0.6"/>
</svg>
