<svg width="12" height="12" viewBox="0 0 12 12" fill="none" xmlns="http://www.w3.org/2000/svg">
<path d="M10.7463 12C10.4277 12 10.109 11.8826 9.85744 11.6312L0.36478 2.14181C-0.121593 1.65561 -0.121593 0.850856 0.36478 0.364652C0.851153 -0.121551 1.65618 -0.121551 2.14256 0.364652L11.6352 9.854C12.1216 10.3402 12.1216 11.145 11.6352 11.6312C11.3836 11.8826 11.065 12 10.7463 12Z" fill="#020817"/>
<path d="M10.7463 0C10.4277 0 10.109 0.11736 9.85744 0.368845L0.36478 9.85819C-0.121593 10.3444 -0.121593 11.1491 0.36478 11.6353C0.851153 12.1216 1.65618 12.1216 2.14256 11.6353L11.6352 2.146C12.1216 1.6598 12.1216 0.855048 11.6352 0.368845C11.3836 0.11736 11.065 0 10.7463 0Z" fill="#020817"/>
</svg>
