<svg width="19" height="19" viewBox="0 0 19 19" fill="none" xmlns="http://www.w3.org/2000/svg">
<path d="M12.9394 3.50948V2.33948C12.9394 2.03198 12.6844 1.77698 12.3769 1.77698C12.0694 1.77698 11.8144 2.03198 11.8144 2.33948V3.46448H6.93938V2.33948C6.93938 2.03198 6.68438 1.77698 6.37688 1.77698C6.06938 1.77698 5.81438 2.03198 5.81438 2.33948V3.50948C3.78938 3.69698 2.80688 4.90448 2.65688 6.69698C2.64188 6.91448 2.82188 7.09448 3.03188 7.09448H15.7219C15.9394 7.09448 16.1194 6.90698 16.0969 6.69698C15.9469 4.90448 14.9644 3.69698 12.9394 3.50948Z" fill="#171717" fill-opacity="0.2"/>
<path d="M15.377 8.21838H3.37695C2.96445 8.21838 2.62695 8.55588 2.62695 8.96838V13.5884C2.62695 15.8384 3.75195 17.3384 6.37695 17.3384H12.377C15.002 17.3384 16.127 15.8384 16.127 13.5884V8.96838C16.127 8.55588 15.7895 8.21838 15.377 8.21838ZM7.28445 14.4959C7.24695 14.5259 7.20945 14.5634 7.17195 14.5859C7.12695 14.6159 7.08195 14.6384 7.03695 14.6534C6.99195 14.6759 6.94695 14.6909 6.90195 14.6984C6.84945 14.7059 6.80445 14.7134 6.75195 14.7134C6.65445 14.7134 6.55695 14.6909 6.46695 14.6534C6.36945 14.6159 6.29445 14.5634 6.21945 14.4959C6.08445 14.3534 6.00195 14.1584 6.00195 13.9634C6.00195 13.7684 6.08445 13.5734 6.21945 13.4309C6.29445 13.3634 6.36945 13.3109 6.46695 13.2734C6.60195 13.2134 6.75195 13.1984 6.90195 13.2284C6.94695 13.2359 6.99195 13.2509 7.03695 13.2734C7.08195 13.2884 7.12695 13.3109 7.17195 13.3409C7.20945 13.3709 7.24695 13.4009 7.28445 13.4309C7.41945 13.5734 7.50195 13.7684 7.50195 13.9634C7.50195 14.1584 7.41945 14.3534 7.28445 14.4959ZM7.28445 11.8709C7.14195 12.0059 6.94695 12.0884 6.75195 12.0884C6.55695 12.0884 6.36195 12.0059 6.21945 11.8709C6.08445 11.7284 6.00195 11.5334 6.00195 11.3384C6.00195 11.1434 6.08445 10.9484 6.21945 10.8059C6.42945 10.5959 6.75945 10.5284 7.03695 10.6484C7.13445 10.6859 7.21695 10.7384 7.28445 10.8059C7.41945 10.9484 7.50195 11.1434 7.50195 11.3384C7.50195 11.5334 7.41945 11.7284 7.28445 11.8709ZM9.90945 14.4959C9.76695 14.6309 9.57195 14.7134 9.37695 14.7134C9.18195 14.7134 8.98695 14.6309 8.84445 14.4959C8.70945 14.3534 8.62695 14.1584 8.62695 13.9634C8.62695 13.7684 8.70945 13.5734 8.84445 13.4309C9.12195 13.1534 9.63195 13.1534 9.90945 13.4309C10.0445 13.5734 10.127 13.7684 10.127 13.9634C10.127 14.1584 10.0445 14.3534 9.90945 14.4959ZM9.90945 11.8709C9.87195 11.9009 9.83445 11.9309 9.79695 11.9609C9.75195 11.9909 9.70695 12.0134 9.66195 12.0284C9.61695 12.0509 9.57195 12.0659 9.52695 12.0734C9.47445 12.0809 9.42945 12.0884 9.37695 12.0884C9.18195 12.0884 8.98695 12.0059 8.84445 11.8709C8.70945 11.7284 8.62695 11.5334 8.62695 11.3384C8.62695 11.1434 8.70945 10.9484 8.84445 10.8059C8.91195 10.7384 8.99445 10.6859 9.09195 10.6484C9.36945 10.5284 9.69945 10.5959 9.90945 10.8059C10.0445 10.9484 10.127 11.1434 10.127 11.3384C10.127 11.5334 10.0445 11.7284 9.90945 11.8709ZM12.5345 14.4959C12.392 14.6309 12.197 14.7134 12.002 14.7134C11.807 14.7134 11.612 14.6309 11.4695 14.4959C11.3345 14.3534 11.252 14.1584 11.252 13.9634C11.252 13.7684 11.3345 13.5734 11.4695 13.4309C11.747 13.1534 12.257 13.1534 12.5345 13.4309C12.6695 13.5734 12.752 13.7684 12.752 13.9634C12.752 14.1584 12.6695 14.3534 12.5345 14.4959ZM12.5345 11.8709C12.497 11.9009 12.4595 11.9309 12.422 11.9609C12.377 11.9909 12.332 12.0134 12.287 12.0284C12.242 12.0509 12.197 12.0659 12.152 12.0734C12.0995 12.0809 12.047 12.0884 12.002 12.0884C11.807 12.0884 11.612 12.0059 11.4695 11.8709C11.3345 11.7284 11.252 11.5334 11.252 11.3384C11.252 11.1434 11.3345 10.9484 11.4695 10.8059C11.5445 10.7384 11.6195 10.6859 11.717 10.6484C11.852 10.5884 12.002 10.5734 12.152 10.6034C12.197 10.6109 12.242 10.6259 12.287 10.6484C12.332 10.6634 12.377 10.6859 12.422 10.7159C12.4595 10.7459 12.497 10.7759 12.5345 10.8059C12.6695 10.9484 12.752 11.1434 12.752 11.3384C12.752 11.5334 12.6695 11.7284 12.5345 11.8709Z" fill="#171717" fill-opacity="0.2"/>
</svg>
