<svg width="19" height="19" viewBox="0 0 19 19" fill="none" xmlns="http://www.w3.org/2000/svg">
<path d="M12.9395 3.17V2C12.9395 1.6925 12.6845 1.4375 12.377 1.4375C12.0695 1.4375 11.8145 1.6925 11.8145 2V3.125H6.9395V2C6.9395 1.6925 6.6845 1.4375 6.377 1.4375C6.0695 1.4375 5.8145 1.6925 5.8145 2V3.17C3.7895 3.3575 2.807 4.565 2.657 6.3575C2.642 6.575 2.822 6.755 3.032 6.755H15.722C15.9395 6.755 16.1195 6.5675 16.097 6.3575C15.947 4.565 14.9645 3.3575 12.9395 3.17Z" fill="#020817"/>
<path d="M15.3768 7.87891H3.37683C2.96433 7.87891 2.62683 8.21641 2.62683 8.62891V13.2489C2.62683 15.4989 3.75183 16.9989 6.37683 16.9989H12.3768C15.0018 16.9989 16.1268 15.4989 16.1268 13.2489V8.62891C16.1268 8.21641 15.7893 7.87891 15.3768 7.87891ZM7.28433 14.1564C7.24683 14.1864 7.20933 14.2239 7.17183 14.2464C7.12683 14.2764 7.08183 14.2989 7.03683 14.3139C6.99183 14.3364 6.94683 14.3514 6.90183 14.3589C6.84933 14.3664 6.80433 14.3739 6.75183 14.3739C6.65433 14.3739 6.55683 14.3514 6.46683 14.3139C6.36933 14.2764 6.29433 14.2239 6.21933 14.1564C6.08433 14.0139 6.00183 13.8189 6.00183 13.6239C6.00183 13.4289 6.08433 13.2339 6.21933 13.0914C6.29433 13.0239 6.36933 12.9714 6.46683 12.9339C6.60183 12.8739 6.75183 12.8589 6.90183 12.8889C6.94683 12.8964 6.99183 12.9114 7.03683 12.9339C7.08183 12.9489 7.12683 12.9714 7.17183 13.0014C7.20933 13.0314 7.24683 13.0614 7.28433 13.0914C7.41933 13.2339 7.50183 13.4289 7.50183 13.6239C7.50183 13.8189 7.41933 14.0139 7.28433 14.1564ZM7.28433 11.5314C7.14183 11.6664 6.94683 11.7489 6.75183 11.7489C6.55683 11.7489 6.36183 11.6664 6.21933 11.5314C6.08433 11.3889 6.00183 11.1939 6.00183 10.9989C6.00183 10.8039 6.08433 10.6089 6.21933 10.4664C6.42933 10.2564 6.75933 10.1889 7.03683 10.3089C7.13433 10.3464 7.21683 10.3989 7.28433 10.4664C7.41933 10.6089 7.50183 10.8039 7.50183 10.9989C7.50183 11.1939 7.41933 11.3889 7.28433 11.5314ZM9.90933 14.1564C9.76683 14.2914 9.57183 14.3739 9.37683 14.3739C9.18183 14.3739 8.98683 14.2914 8.84433 14.1564C8.70933 14.0139 8.62683 13.8189 8.62683 13.6239C8.62683 13.4289 8.70933 13.2339 8.84433 13.0914C9.12183 12.8139 9.63183 12.8139 9.90933 13.0914C10.0443 13.2339 10.1268 13.4289 10.1268 13.6239C10.1268 13.8189 10.0443 14.0139 9.90933 14.1564ZM9.90933 11.5314C9.87183 11.5614 9.83433 11.5914 9.79683 11.6214C9.75183 11.6514 9.70683 11.6739 9.66183 11.6889C9.61683 11.7114 9.57183 11.7264 9.52683 11.7339C9.47433 11.7414 9.42933 11.7489 9.37683 11.7489C9.18183 11.7489 8.98683 11.6664 8.84433 11.5314C8.70933 11.3889 8.62683 11.1939 8.62683 10.9989C8.62683 10.8039 8.70933 10.6089 8.84433 10.4664C8.91183 10.3989 8.99433 10.3464 9.09183 10.3089C9.36933 10.1889 9.69933 10.2564 9.90933 10.4664C10.0443 10.6089 10.1268 10.8039 10.1268 10.9989C10.1268 11.1939 10.0443 11.3889 9.90933 11.5314ZM12.5343 14.1564C12.3918 14.2914 12.1968 14.3739 12.0018 14.3739C11.8068 14.3739 11.6118 14.2914 11.4693 14.1564C11.3343 14.0139 11.2518 13.8189 11.2518 13.6239C11.2518 13.4289 11.3343 13.2339 11.4693 13.0914C11.7468 12.8139 12.2568 12.8139 12.5343 13.0914C12.6693 13.2339 12.7518 13.4289 12.7518 13.6239C12.7518 13.8189 12.6693 14.0139 12.5343 14.1564ZM12.5343 11.5314C12.4968 11.5614 12.4593 11.5914 12.4218 11.6214C12.3768 11.6514 12.3318 11.6739 12.2868 11.6889C12.2418 11.7114 12.1968 11.7264 12.1518 11.7339C12.0993 11.7414 12.0468 11.7489 12.0018 11.7489C11.8068 11.7489 11.6118 11.6664 11.4693 11.5314C11.3343 11.3889 11.2518 11.1939 11.2518 10.9989C11.2518 10.8039 11.3343 10.6089 11.4693 10.4664C11.5443 10.3989 11.6193 10.3464 11.7168 10.3089C11.8518 10.2489 12.0018 10.2339 12.1518 10.2639C12.1968 10.2714 12.2418 10.2864 12.2868 10.3089C12.3318 10.3239 12.3768 10.3464 12.4218 10.3764C12.4593 10.4064 12.4968 10.4364 12.5343 10.4664C12.6693 10.6089 12.7518 10.8039 12.7518 10.9989C12.7518 11.1939 12.6693 11.3889 12.5343 11.5314Z" fill="#020817"/>
</svg>
