<svg width="16" height="16" viewBox="0 0 16 16" fill="none" xmlns="http://www.w3.org/2000/svg">
<path d="M7.87695 0.338501C3.74445 0.338501 0.376953 3.706 0.376953 7.8385C0.376953 11.971 3.74445 15.3385 7.87695 15.3385C12.0095 15.3385 15.377 11.971 15.377 7.8385C15.377 3.706 12.0095 0.338501 7.87695 0.338501ZM11.1395 10.516C11.0345 10.696 10.847 10.7935 10.652 10.7935C10.5545 10.7935 10.457 10.771 10.367 10.711L8.04195 9.3235C7.46445 8.9785 7.03695 8.221 7.03695 7.5535V4.4785C7.03695 4.171 7.29195 3.916 7.59945 3.916C7.90695 3.916 8.16195 4.171 8.16195 4.4785V7.5535C8.16195 7.8235 8.38695 8.221 8.61945 8.356L10.9445 9.7435C11.2145 9.901 11.3045 10.246 11.1395 10.516Z" fill="#171717"/>
</svg>
