<svg width="19" height="19" viewBox="0 0 19 19" fill="none" xmlns="http://www.w3.org/2000/svg">
<path d="M12.9394 3.50945V2.33945C12.9394 2.03195 12.6844 1.77695 12.3769 1.77695C12.0694 1.77695 11.8144 2.03195 11.8144 2.33945V3.46445H6.93944V2.33945C6.93944 2.03195 6.68444 1.77695 6.37694 1.77695C6.06944 1.77695 5.81444 2.03195 5.81444 2.33945V3.50945C3.78944 3.69695 2.80694 4.90445 2.65694 6.69695C2.64194 6.91445 2.82194 7.09445 3.03194 7.09445H15.7219C15.9394 7.09445 16.1194 6.90695 16.0969 6.69695C15.9469 4.90445 14.9644 3.69695 12.9394 3.50945Z" fill="#020817"/>
<path d="M15.3768 8.21835H3.37683C2.96433 8.21835 2.62683 8.55585 2.62683 8.96835V13.5884C2.62683 15.8384 3.75183 17.3384 6.37683 17.3384H12.3768C15.0018 17.3384 16.1268 15.8384 16.1268 13.5884V8.96835C16.1268 8.55585 15.7893 8.21835 15.3768 8.21835ZM7.28433 14.4959C7.24683 14.5259 7.20933 14.5634 7.17183 14.5859C7.12683 14.6159 7.08183 14.6384 7.03683 14.6534C6.99183 14.6759 6.94683 14.6909 6.90183 14.6984C6.84933 14.7059 6.80433 14.7134 6.75183 14.7134C6.65433 14.7134 6.55683 14.6909 6.46683 14.6534C6.36933 14.6159 6.29433 14.5634 6.21933 14.4959C6.08433 14.3534 6.00183 14.1584 6.00183 13.9634C6.00183 13.7684 6.08433 13.5734 6.21933 13.4309C6.29433 13.3634 6.36933 13.3109 6.46683 13.2734C6.60183 13.2134 6.75183 13.1984 6.90183 13.2284C6.94683 13.2359 6.99183 13.2509 7.03683 13.2734C7.08183 13.2884 7.12683 13.3109 7.17183 13.3409C7.20933 13.3709 7.24683 13.4009 7.28433 13.4309C7.41933 13.5734 7.50183 13.7684 7.50183 13.9634C7.50183 14.1584 7.41933 14.3534 7.28433 14.4959ZM7.28433 11.8709C7.14183 12.0059 6.94683 12.0884 6.75183 12.0884C6.55683 12.0884 6.36183 12.0059 6.21933 11.8709C6.08433 11.7284 6.00183 11.5334 6.00183 11.3384C6.00183 11.1434 6.08433 10.9484 6.21933 10.8059C6.42933 10.5959 6.75933 10.5284 7.03683 10.6484C7.13433 10.6859 7.21683 10.7384 7.28433 10.8059C7.41933 10.9484 7.50183 11.1434 7.50183 11.3384C7.50183 11.5334 7.41933 11.7284 7.28433 11.8709ZM9.90933 14.4959C9.76683 14.6309 9.57183 14.7134 9.37683 14.7134C9.18183 14.7134 8.98683 14.6309 8.84433 14.4959C8.70933 14.3534 8.62683 14.1584 8.62683 13.9634C8.62683 13.7684 8.70933 13.5734 8.84433 13.4309C9.12183 13.1534 9.63183 13.1534 9.90933 13.4309C10.0443 13.5734 10.1268 13.7684 10.1268 13.9634C10.1268 14.1584 10.0443 14.3534 9.90933 14.4959ZM9.90933 11.8709C9.87183 11.9009 9.83433 11.9309 9.79683 11.9609C9.75183 11.9909 9.70683 12.0134 9.66183 12.0284C9.61683 12.0509 9.57183 12.0659 9.52683 12.0734C9.47433 12.0809 9.42933 12.0884 9.37683 12.0884C9.18183 12.0884 8.98683 12.0059 8.84433 11.8709C8.70933 11.7284 8.62683 11.5334 8.62683 11.3384C8.62683 11.1434 8.70933 10.9484 8.84433 10.8059C8.91183 10.7384 8.99433 10.6859 9.09183 10.6484C9.36933 10.5284 9.69933 10.5959 9.90933 10.8059C10.0443 10.9484 10.1268 11.1434 10.1268 11.3384C10.1268 11.5334 10.0443 11.7284 9.90933 11.8709ZM12.5343 14.4959C12.3918 14.6309 12.1968 14.7134 12.0018 14.7134C11.8068 14.7134 11.6118 14.6309 11.4693 14.4959C11.3343 14.3534 11.2518 14.1584 11.2518 13.9634C11.2518 13.7684 11.3343 13.5734 11.4693 13.4309C11.7468 13.1534 12.2568 13.1534 12.5343 13.4309C12.6693 13.5734 12.7518 13.7684 12.7518 13.9634C12.7518 14.1584 12.6693 14.3534 12.5343 14.4959ZM12.5343 11.8709C12.4968 11.9009 12.4593 11.9309 12.4218 11.9609C12.3768 11.9909 12.3318 12.0134 12.2868 12.0284C12.2418 12.0509 12.1968 12.0659 12.1518 12.0734C12.0993 12.0809 12.0468 12.0884 12.0018 12.0884C11.8068 12.0884 11.6118 12.0059 11.4693 11.8709C11.3343 11.7284 11.2518 11.5334 11.2518 11.3384C11.2518 11.1434 11.3343 10.9484 11.4693 10.8059C11.5443 10.7384 11.6193 10.6859 11.7168 10.6484C11.8518 10.5884 12.0018 10.5734 12.1518 10.6034C12.1968 10.6109 12.2418 10.6259 12.2868 10.6484C12.3318 10.6634 12.3768 10.6859 12.4218 10.7159C12.4593 10.7459 12.4968 10.7759 12.5343 10.8059C12.6693 10.9484 12.7518 11.1434 12.7518 11.3384C12.7518 11.5334 12.6693 11.7284 12.5343 11.8709Z" fill="#020817"/>
</svg>
