<svg width="19" height="19" viewBox="0 0 19 19" fill="none" xmlns="http://www.w3.org/2000/svg">
<path d="M13.3198 3.50948V2.33948C13.3198 2.03198 13.0648 1.77698 12.7573 1.77698C12.4498 1.77698 12.1948 2.03198 12.1948 2.33948V3.46448H7.31975V2.33948C7.31975 2.03198 7.06475 1.77698 6.75725 1.77698C6.44975 1.77698 6.19475 2.03198 6.19475 2.33948V3.50948C4.16975 3.69698 3.18725 4.90448 3.03725 6.69698C3.02225 6.91448 3.20225 7.09448 3.41225 7.09448H16.1023C16.3197 7.09448 16.4998 6.90698 16.4773 6.69698C16.3272 4.90448 15.3448 3.69698 13.3198 3.50948Z" fill="#020817" fill-opacity="0.2"/>
<path d="M15.7571 8.21838H3.75708C3.34458 8.21838 3.00708 8.55588 3.00708 8.96838V13.5884C3.00708 15.8384 4.13208 17.3384 6.75708 17.3384H12.7571C15.3821 17.3384 16.5071 15.8384 16.5071 13.5884V8.96838C16.5071 8.55588 16.1696 8.21838 15.7571 8.21838ZM7.66458 14.4959C7.62708 14.5259 7.58958 14.5634 7.55208 14.5859C7.50708 14.6159 7.46208 14.6384 7.41708 14.6534C7.37208 14.6759 7.32708 14.6909 7.28208 14.6984C7.22958 14.7059 7.18458 14.7134 7.13208 14.7134C7.03458 14.7134 6.93708 14.6909 6.84708 14.6534C6.74958 14.6159 6.67458 14.5634 6.59958 14.4959C6.46458 14.3534 6.38208 14.1584 6.38208 13.9634C6.38208 13.7684 6.46458 13.5734 6.59958 13.4309C6.67458 13.3634 6.74958 13.3109 6.84708 13.2734C6.98208 13.2134 7.13208 13.1984 7.28208 13.2284C7.32708 13.2359 7.37208 13.2509 7.41708 13.2734C7.46208 13.2884 7.50708 13.3109 7.55208 13.3409C7.58958 13.3709 7.62708 13.4009 7.66458 13.4309C7.79958 13.5734 7.88208 13.7684 7.88208 13.9634C7.88208 14.1584 7.79958 14.3534 7.66458 14.4959ZM7.66458 11.8709C7.52208 12.0059 7.32708 12.0884 7.13208 12.0884C6.93708 12.0884 6.74208 12.0059 6.59958 11.8709C6.46458 11.7284 6.38208 11.5334 6.38208 11.3384C6.38208 11.1434 6.46458 10.9484 6.59958 10.8059C6.80958 10.5959 7.13958 10.5284 7.41708 10.6484C7.51458 10.6859 7.59708 10.7384 7.66458 10.8059C7.79958 10.9484 7.88208 11.1434 7.88208 11.3384C7.88208 11.5334 7.79958 11.7284 7.66458 11.8709ZM10.2896 14.4959C10.1471 14.6309 9.95208 14.7134 9.75708 14.7134C9.56208 14.7134 9.36708 14.6309 9.22458 14.4959C9.08958 14.3534 9.00708 14.1584 9.00708 13.9634C9.00708 13.7684 9.08958 13.5734 9.22458 13.4309C9.50208 13.1534 10.0121 13.1534 10.2896 13.4309C10.4246 13.5734 10.5071 13.7684 10.5071 13.9634C10.5071 14.1584 10.4246 14.3534 10.2896 14.4959ZM10.2896 11.8709C10.2521 11.9009 10.2146 11.9309 10.1771 11.9609C10.1321 11.9909 10.0871 12.0134 10.0421 12.0284C9.99708 12.0509 9.95208 12.0659 9.90708 12.0734C9.85458 12.0809 9.80958 12.0884 9.75708 12.0884C9.56208 12.0884 9.36708 12.0059 9.22458 11.8709C9.08958 11.7284 9.00708 11.5334 9.00708 11.3384C9.00708 11.1434 9.08958 10.9484 9.22458 10.8059C9.29208 10.7384 9.37458 10.6859 9.47208 10.6484C9.74958 10.5284 10.0796 10.5959 10.2896 10.8059C10.4246 10.9484 10.5071 11.1434 10.5071 11.3384C10.5071 11.5334 10.4246 11.7284 10.2896 11.8709ZM12.9146 14.4959C12.7721 14.6309 12.5771 14.7134 12.3821 14.7134C12.1871 14.7134 11.9921 14.6309 11.8496 14.4959C11.7146 14.3534 11.6321 14.1584 11.6321 13.9634C11.6321 13.7684 11.7146 13.5734 11.8496 13.4309C12.1271 13.1534 12.6371 13.1534 12.9146 13.4309C13.0496 13.5734 13.1321 13.7684 13.1321 13.9634C13.1321 14.1584 13.0496 14.3534 12.9146 14.4959ZM12.9146 11.8709C12.8771 11.9009 12.8396 11.9309 12.8021 11.9609C12.7571 11.9909 12.7121 12.0134 12.6671 12.0284C12.6221 12.0509 12.5771 12.0659 12.5321 12.0734C12.4796 12.0809 12.4271 12.0884 12.3821 12.0884C12.1871 12.0884 11.9921 12.0059 11.8496 11.8709C11.7146 11.7284 11.6321 11.5334 11.6321 11.3384C11.6321 11.1434 11.7146 10.9484 11.8496 10.8059C11.9246 10.7384 11.9996 10.6859 12.0971 10.6484C12.2321 10.5884 12.3821 10.5734 12.5321 10.6034C12.5771 10.6109 12.6221 10.6259 12.6671 10.6484C12.7121 10.6634 12.7571 10.6859 12.8021 10.7159C12.8396 10.7459 12.8771 10.7759 12.9146 10.8059C13.0496 10.9484 13.1321 11.1434 13.1321 11.3384C13.1321 11.5334 13.0496 11.7284 12.9146 11.8709Z" fill="#020817" fill-opacity="0.2"/>
</svg>
