<svg width="34" height="36" viewBox="0 0 34 36" fill="none" xmlns="http://www.w3.org/2000/svg">
<path opacity="0.4" d="M30.6306 14.033H2.81787V9.68123C2.81787 6.16526 5.60759 3.31213 9.04543 3.31213H12.3283C14.6249 3.31213 15.3434 4.07585 16.2593 5.3295L18.2318 8.0097C18.6686 8.6005 18.7249 8.68696 19.5421 8.68696H23.4731C26.8123 8.67255 29.6584 10.9205 30.6306 14.033Z" fill="#007C85" fill-opacity="0.6"/>
<path d="M30.9828 16.0503C30.9546 15.3442 30.8419 14.6814 30.6306 14.0329H2.81787V24.4224C2.81787 28.6732 6.19935 32.1316 10.3558 32.1316H23.459C27.6154 32.1316 30.9969 28.6732 30.9969 24.4224V16.3817C30.9969 16.2809 30.9969 16.1512 30.9828 16.0503ZM20.4298 23.846H18.0486V26.3677C18.0486 26.9585 17.5696 27.4484 16.9919 27.4484C16.4142 27.4484 15.9352 26.9585 15.9352 26.3677V23.846H13.385C12.8073 23.846 12.3283 23.356 12.3283 22.7652C12.3283 22.1744 12.8073 21.6845 13.385 21.6845H15.9352V19.1628C15.9352 18.572 16.4142 18.0821 16.9919 18.0821C17.5696 18.0821 18.0486 18.572 18.0486 19.1628V21.6845H20.4298C21.0074 21.6845 21.4865 22.1744 21.4865 22.7652C21.4865 23.356 21.0074 23.846 20.4298 23.846Z" fill="#007C85" fill-opacity="0.6"/>
</svg>
